<svg width="615" height="272" viewBox="0 0 615 272" fill="none" xmlns="http://www.w3.org/2000/svg">
<path d="M76.2 261.6V272H0.2V261.6L21.8 259.2C24.7333 258.933 26.8667 258.533 28.2 258C29.5333 257.2 30.7333 255.6 31.8 253.2C33.1333 250.533 34.7333 246 36.6 239.6L113.8 -2.86102e-06H139L217 239.6C218.867 246 220.333 250.533 221.4 253.2C222.733 255.6 224.067 257.2 225.4 258C226.733 258.533 228.733 258.933 231.4 259.2L253.4 261.6V272H156.2V261.6L178.2 259.2C182.467 258.667 184.733 257.6 185 256C185.533 254.133 184.333 248.667 181.4 239.6L165 188.4H67.4L51 239.6C48.0667 248.667 46.7333 254.133 47 256C47.5333 257.6 49.9333 258.667 54.2 259.2L76.2 261.6ZM71.4 175.6H161L116.2 36.4L71.4 175.6Z" fill="#18216D"/>
<mask id="path-2-outside-1_0_1" maskUnits="userSpaceOnUse" x="224" y="-1" width="185" height="274" fill="black">
<rect fill="white" x="224" y="-1" width="185" height="274"/>
<path d="M396.4 206H407.2V272H225.2V261.6L247.2 259.2C251.467 258.667 254 257.6 254.8 256C255.6 254.4 256 248.933 256 239.6V32.4C256 23.0667 255.6 17.6 254.8 16C254 14.4 251.467 13.3333 247.2 12.8L225.2 10.8V-2.86102e-06H321.6V10.8L299.6 12.8C295.333 13.3333 292.8 14.4 292 16C291.2 17.6 290.8 23.0667 290.8 32.4V259.2H363.2C369.6 259.2 374.133 259.067 376.8 258.8C379.467 258.267 381.2 257.333 382 256C383.067 254.4 384 252 384.8 248.8L396.4 206Z"/>
</mask>
<path d="M396.4 206H407.2V272H225.2V261.6L247.2 259.2C251.467 258.667 254 257.6 254.8 256C255.6 254.4 256 248.933 256 239.6V32.4C256 23.0667 255.6 17.6 254.8 16C254 14.4 251.467 13.3333 247.2 12.8L225.2 10.8V-2.86102e-06H321.6V10.8L299.6 12.8C295.333 13.3333 292.8 14.4 292 16C291.2 17.6 290.8 23.0667 290.8 32.4V259.2H363.2C369.6 259.2 374.133 259.067 376.8 258.8C379.467 258.267 381.2 257.333 382 256C383.067 254.4 384 252 384.8 248.8L396.4 206Z" fill="#FF800B" fill-opacity="0.4"/>
<path d="M396.4 206V205H395.635L395.435 205.738L396.4 206ZM407.2 206H408.2V205H407.2V206ZM407.2 272V273H408.2V272H407.2ZM225.2 272H224.2V273H225.2V272ZM225.2 261.6L225.092 260.606L224.2 260.703V261.6H225.2ZM247.2 259.2L247.308 260.194L247.316 260.193L247.324 260.192L247.2 259.2ZM254.8 256L255.694 256.447L255.694 256.447L254.8 256ZM254.8 16L255.694 15.5528L255.694 15.5528L254.8 16ZM247.2 12.8L247.324 11.8077L247.307 11.8056L247.291 11.8041L247.2 12.8ZM225.2 10.8H224.2V11.7132L225.109 11.7959L225.2 10.8ZM225.2 -2.86102e-06V-1H224.2V-2.86102e-06H225.2ZM321.6 -2.86102e-06H322.6V-1H321.6V-2.86102e-06ZM321.6 10.8L321.691 11.7959L322.6 11.7132V10.8H321.6ZM299.6 12.8L299.509 11.8041L299.493 11.8056L299.476 11.8077L299.6 12.8ZM292 16L291.106 15.5528L291.106 15.5528L292 16ZM290.8 259.2H289.8V260.2H290.8V259.2ZM376.8 258.8L376.9 259.795L376.948 259.79L376.996 259.781L376.8 258.8ZM382 256L381.168 255.445L381.155 255.465L381.143 255.486L382 256ZM384.8 248.8L383.835 248.538L383.832 248.548L383.83 248.557L384.8 248.8ZM396.4 207H407.2V205H396.4V207ZM406.2 206V272H408.2V206H406.2ZM407.2 271H225.2V273H407.2V271ZM226.2 272V261.6H224.2V272H226.2ZM225.308 262.594L247.308 260.194L247.092 258.206L225.092 260.606L225.308 262.594ZM247.324 260.192C249.503 259.92 251.304 259.505 252.688 258.922C254.062 258.343 255.143 257.549 255.694 256.447L253.906 255.553C253.657 256.051 253.072 256.59 251.912 257.078C250.763 257.562 249.163 257.947 247.076 258.208L247.324 260.192ZM255.694 256.447C255.963 255.909 256.157 255.146 256.311 254.242C256.468 253.316 256.596 252.157 256.697 250.773C256.9 248.004 257 244.277 257 239.6H255C255 244.257 254.9 247.929 254.703 250.627C254.604 251.977 254.482 253.067 254.339 253.908C254.193 254.771 254.037 255.291 253.906 255.553L255.694 256.447ZM257 239.6V32.4H255V239.6H257ZM257 32.4C257 27.7233 256.9 23.9956 256.697 21.227C256.596 19.8434 256.468 18.6839 256.311 17.7576C256.157 16.854 255.963 16.0909 255.694 15.5528L253.906 16.4472C254.037 16.7091 254.193 17.2293 254.339 18.0924C254.482 18.9327 254.604 20.0233 254.703 21.373C254.9 24.071 255 27.7434 255 32.4H257ZM255.694 15.5528C255.143 14.4505 254.062 13.6567 252.688 13.0784C251.304 12.4954 249.503 12.0801 247.324 11.8077L247.076 13.7923C249.163 14.0532 250.763 14.4379 251.912 14.9216C253.072 15.4099 253.657 15.9494 253.906 16.4472L255.694 15.5528ZM247.291 11.8041L225.291 9.80408L225.109 11.7959L247.109 13.7959L247.291 11.8041ZM226.2 10.8V-2.86102e-06H224.2V10.8H226.2ZM225.2 0.999997H321.6V-1H225.2V0.999997ZM320.6 -2.86102e-06V10.8H322.6V-2.86102e-06H320.6ZM321.509 9.80408L299.509 11.8041L299.691 13.7959L321.691 11.7959L321.509 9.80408ZM299.476 11.8077C297.297 12.0801 295.496 12.4954 294.112 13.0784C292.738 13.6567 291.657 14.4505 291.106 15.5528L292.894 16.4472C293.143 15.9494 293.728 15.4099 294.888 14.9216C296.037 14.4379 297.637 14.0532 299.724 13.7923L299.476 11.8077ZM291.106 15.5528C290.837 16.0909 290.643 16.854 290.489 17.7576C290.332 18.6839 290.204 19.8434 290.103 21.227C289.9 23.9956 289.8 27.7233 289.8 32.4H291.8C291.8 27.7434 291.9 24.071 292.097 21.373C292.196 20.0233 292.318 18.9327 292.461 18.0924C292.607 17.2293 292.763 16.7091 292.894 16.4472L291.106 15.5528ZM289.8 32.4V259.2H291.8V32.4H289.8ZM290.8 260.2H363.2V258.2H290.8V260.2ZM363.2 260.2C369.6 260.2 374.178 260.067 376.9 259.795L376.701 257.805C374.088 258.066 369.6 258.2 363.2 258.2V260.2ZM376.996 259.781C379.745 259.231 381.835 258.219 382.858 256.514L381.143 255.486C380.565 256.448 379.189 257.302 376.604 257.819L376.996 259.781ZM382.832 256.555C383.992 254.815 384.959 252.286 385.77 249.043L383.83 248.557C383.041 251.714 382.141 253.985 381.168 255.445L382.832 256.555ZM385.765 249.062L397.365 206.262L395.435 205.738L383.835 248.538L385.765 249.062Z" fill="black" mask="url(#path-2-outside-1_0_1)"/>
<mask id="path-4-outside-2_0_1" maskUnits="userSpaceOnUse" x="308" y="-1" width="308" height="274" fill="black">
<rect fill="white" x="308" y="-1" width="308" height="274"/>
<path d="M614.4 261.6V272H518V261.6L540 259.2C544.267 258.667 546.8 257.6 547.6 256C548.4 254.133 548.8 248.667 548.8 239.6V22.8L465.6 240H438.4L354.8 22.8V239.6C354.8 248.667 355.2 254.133 356 256C356.8 257.6 359.333 258.667 363.6 259.2L385.6 261.6V272H309.2V261.6L331.2 259.2C335.467 258.667 338 257.6 338.8 256C339.6 254.133 340 248.667 340 239.6V32.4C340 23.3333 339.6 18 338.8 16.4C338 14.5333 335.467 13.3333 331.2 12.8L309.2 10.8V-2.86102e-06H382.4L462.8 210L543.2 -2.86102e-06H614.4V10.8L592.4 12.8C588.133 13.3333 585.6 14.5333 584.8 16.4C584 18 583.6 23.3333 583.6 32.4V239.6C583.6 248.667 584 254.133 584.8 256C585.6 257.6 588.133 258.667 592.4 259.2L614.4 261.6Z"/>
</mask>
<path d="M614.4 261.6V272H518V261.6L540 259.2C544.267 258.667 546.8 257.6 547.6 256C548.4 254.133 548.8 248.667 548.8 239.6V22.8L465.6 240H438.4L354.8 22.8V239.6C354.8 248.667 355.2 254.133 356 256C356.8 257.6 359.333 258.667 363.6 259.2L385.6 261.6V272H309.2V261.6L331.2 259.2C335.467 258.667 338 257.6 338.8 256C339.6 254.133 340 248.667 340 239.6V32.4C340 23.3333 339.6 18 338.8 16.4C338 14.5333 335.467 13.3333 331.2 12.8L309.2 10.8V-2.86102e-06H382.4L462.8 210L543.2 -2.86102e-06H614.4V10.8L592.4 12.8C588.133 13.3333 585.6 14.5333 584.8 16.4C584 18 583.6 23.3333 583.6 32.4V239.6C583.6 248.667 584 254.133 584.8 256C585.6 257.6 588.133 258.667 592.4 259.2L614.4 261.6Z" fill="#18216D" fill-opacity="0.7"/>
<path d="M614.4 261.6H615.4V260.703L614.508 260.606L614.4 261.6ZM614.4 272V273H615.4V272H614.4ZM518 272H517V273H518V272ZM518 261.6L517.892 260.606L517 260.703V261.6H518ZM540 259.2L540.108 260.194L540.116 260.193L540.124 260.192L540 259.2ZM547.6 256L548.494 256.447L548.508 256.421L548.519 256.394L547.6 256ZM548.8 22.8H549.8L547.866 22.4423L548.8 22.8ZM465.6 240V241H466.288L466.534 240.358L465.6 240ZM438.4 240L437.467 240.359L437.713 241H438.4V240ZM354.8 22.8L355.733 22.4408L353.8 22.8H354.8ZM356 256L355.081 256.394L355.092 256.421L355.106 256.447L356 256ZM363.6 259.2L363.476 260.192L363.484 260.193L363.492 260.194L363.6 259.2ZM385.6 261.6H386.6V260.703L385.708 260.606L385.6 261.6ZM385.6 272V273H386.6V272H385.6ZM309.2 272H308.2V273H309.2V272ZM309.2 261.6L309.092 260.606L308.2 260.703V261.6H309.2ZM331.2 259.2L331.308 260.194L331.316 260.193L331.324 260.192L331.2 259.2ZM338.8 256L339.694 256.447L339.708 256.421L339.719 256.394L338.8 256ZM338.8 16.4L337.881 16.7939L337.892 16.8209L337.906 16.8472L338.8 16.4ZM331.2 12.8L331.324 11.8077L331.307 11.8056L331.291 11.8041L331.2 12.8ZM309.2 10.8H308.2V11.7132L309.109 11.7959L309.2 10.8ZM309.2 -2.86102e-06V-1H308.2V-2.86102e-06H309.2ZM382.4 -2.86102e-06L383.334 -0.357551L383.088 -1H382.4V-2.86102e-06ZM462.8 210L461.866 210.358L462.8 212.797L463.734 210.358L462.8 210ZM543.2 -2.86102e-06V-1H542.512L542.266 -0.357551L543.2 -2.86102e-06ZM614.4 -2.86102e-06H615.4V-1H614.4V-2.86102e-06ZM614.4 10.8L614.491 11.7959L615.4 11.7132V10.8H614.4ZM592.4 12.8L592.309 11.8041L592.293 11.8056L592.276 11.8077L592.4 12.8ZM584.8 16.4L585.694 16.8472L585.708 16.8209L585.719 16.7939L584.8 16.4ZM584.8 256L583.881 256.394L583.892 256.421L583.906 256.447L584.8 256ZM592.4 259.2L592.276 260.192L592.284 260.193L592.292 260.194L592.4 259.2ZM613.4 261.6V272H615.4V261.6H613.4ZM614.4 271H518V273H614.4V271ZM519 272V261.6H517V272H519ZM518.108 262.594L540.108 260.194L539.892 258.206L517.892 260.606L518.108 262.594ZM540.124 260.192C542.303 259.92 544.104 259.505 545.488 258.922C546.862 258.343 547.943 257.549 548.494 256.447L546.706 255.553C546.457 256.051 545.872 256.59 544.712 257.078C543.563 257.562 541.963 257.947 539.876 258.208L540.124 260.192ZM548.519 256.394C548.994 255.285 549.299 253.29 549.497 250.573C549.7 247.805 549.8 244.144 549.8 239.6H547.8C547.8 244.122 547.7 247.728 547.503 250.427C547.301 253.177 547.006 254.848 546.681 255.606L548.519 256.394ZM549.8 239.6V22.8H547.8V239.6H549.8ZM547.866 22.4423L464.666 239.642L466.534 240.358L549.734 23.1577L547.866 22.4423ZM465.6 239H438.4V241H465.6V239ZM439.333 239.641L355.733 22.4408L353.867 23.1592L437.467 240.359L439.333 239.641ZM353.8 22.8V239.6H355.8V22.8H353.8ZM353.8 239.6C353.8 244.144 353.9 247.805 354.103 250.573C354.301 253.29 354.606 255.285 355.081 256.394L356.919 255.606C356.594 254.848 356.299 253.177 356.097 250.427C355.9 247.728 355.8 244.122 355.8 239.6H353.8ZM355.106 256.447C355.657 257.549 356.738 258.343 358.112 258.922C359.496 259.505 361.297 259.92 363.476 260.192L363.724 258.208C361.637 257.947 360.037 257.562 358.888 257.078C357.728 256.59 357.143 256.051 356.894 255.553L355.106 256.447ZM363.492 260.194L385.492 262.594L385.708 260.606L363.708 258.206L363.492 260.194ZM384.6 261.6V272H386.6V261.6H384.6ZM385.6 271H309.2V273H385.6V271ZM310.2 272V261.6H308.2V272H310.2ZM309.308 262.594L331.308 260.194L331.092 258.206L309.092 260.606L309.308 262.594ZM331.324 260.192C333.503 259.92 335.304 259.505 336.688 258.922C338.062 258.343 339.143 257.549 339.694 256.447L337.906 255.553C337.657 256.051 337.072 256.59 335.912 257.078C334.763 257.562 333.163 257.947 331.076 258.208L331.324 260.192ZM339.719 256.394C340.194 255.285 340.499 253.29 340.697 250.573C340.9 247.805 341 244.144 341 239.6H339C339 244.122 338.9 247.728 338.703 250.427C338.501 253.177 338.206 254.848 337.881 255.606L339.719 256.394ZM341 239.6V32.4H339V239.6H341ZM341 32.4C341 27.8562 340.9 24.2279 340.697 21.5252C340.596 20.1744 340.468 19.0396 340.31 18.1294C340.157 17.2406 339.962 16.4884 339.694 15.9528L337.906 16.8472C338.038 17.1116 338.193 17.626 338.34 18.4705C338.482 19.2937 338.604 20.3589 338.703 21.6748C338.9 24.3054 339 27.8771 339 32.4H341ZM339.719 16.0061C339.192 14.7758 338.131 13.8609 336.728 13.1962C335.329 12.5333 333.513 12.0813 331.324 11.8077L331.076 13.7923C333.154 14.052 334.738 14.4667 335.872 15.0037C337.002 15.5391 337.608 16.1575 337.881 16.7939L339.719 16.0061ZM331.291 11.8041L309.291 9.80408L309.109 11.7959L331.109 13.7959L331.291 11.8041ZM310.2 10.8V-2.86102e-06H308.2V10.8H310.2ZM309.2 0.999997H382.4V-1H309.2V0.999997ZM381.466 0.357545L461.866 210.358L463.734 209.642L383.334 -0.357551L381.466 0.357545ZM463.734 210.358L544.134 0.357545L542.266 -0.357551L461.866 209.642L463.734 210.358ZM543.2 0.999997H614.4V-1H543.2V0.999997ZM613.4 -2.86102e-06V10.8H615.4V-2.86102e-06H613.4ZM614.309 9.80408L592.309 11.8041L592.491 13.7959L614.491 11.7959L614.309 9.80408ZM592.276 11.8077C590.087 12.0813 588.271 12.5333 586.872 13.1962C585.469 13.8609 584.408 14.7758 583.881 16.0061L585.719 16.7939C585.992 16.1575 586.598 15.5391 587.728 15.0037C588.862 14.4667 590.446 14.052 592.524 13.7923L592.276 11.8077ZM583.906 15.9528C583.638 16.4884 583.444 17.2406 583.29 18.1294C583.132 19.0396 583.004 20.1744 582.903 21.5252C582.7 24.2279 582.6 27.8562 582.6 32.4H584.6C584.6 27.8771 584.7 24.3054 584.897 21.6748C584.996 20.3589 585.118 19.2937 585.26 18.4705C585.407 17.626 585.562 17.1116 585.694 16.8472L583.906 15.9528ZM582.6 32.4V239.6H584.6V32.4H582.6ZM582.6 239.6C582.6 244.144 582.7 247.805 582.903 250.573C583.101 253.29 583.406 255.285 583.881 256.394L585.719 255.606C585.394 254.848 585.099 253.177 584.897 250.427C584.7 247.728 584.6 244.122 584.6 239.6H582.6ZM583.906 256.447C584.457 257.549 585.538 258.343 586.912 258.922C588.296 259.505 590.097 259.92 592.276 260.192L592.524 258.208C590.437 257.947 588.837 257.562 587.688 257.078C586.528 256.59 585.943 256.051 585.694 255.553L583.906 256.447ZM592.292 260.194L614.292 262.594L614.508 260.606L592.508 258.206L592.292 260.194Z" fill="black" mask="url(#path-4-outside-2_0_1)"/>
</svg>